<svg xmlns="http://www.w3.org/2000/svg" viewBox="0 0 512 512" fill="none">
  <rect width="512" height="512" rx="140" fill="#FFD54A"/>
  <rect x="58" y="58" width="396" height="396" rx="112" fill="#F7C22B" opacity="0.28"/>
  <circle cx="154" cy="132" r="18" fill="#E2A413" opacity="0.7"/>
  <circle cx="394" cy="170" r="14" fill="#E2A413" opacity="0.7"/>
  <circle cx="226" cy="98" r="12" fill="#E2A413" opacity="0.7"/>
  <circle cx="108" cy="240" r="10" fill="#E2A413" opacity="0.65"/>
  <circle cx="402" cy="256" r="10" fill="#E2A413" opacity="0.65"/>
  <ellipse cx="194" cy="222" rx="56" ry="74" fill="#FFFDF7"/>
  <ellipse cx="322" cy="222" rx="56" ry="74" fill="#FFFDF7"/>
  <ellipse cx="196" cy="228" rx="20" ry="28" fill="#5CC0FF"/>
  <ellipse cx="320" cy="228" rx="20" ry="28" fill="#5CC0FF"/>
  <ellipse cx="194" cy="232" rx="9" ry="13" fill="#1F2532"/>
  <ellipse cx="322" cy="232" rx="9" ry="13" fill="#1F2532"/>
  <rect x="208" y="298" width="96" height="18" rx="9" fill="#8B3A2E"/>
  <path d="M170 312c20 28 52 42 86 42s66-14 86-42" stroke="#8B3A2E" stroke-width="14" stroke-linecap="round"/>
  <rect x="160" y="364" width="192" height="56" rx="26" fill="#FFF8F1"/>
  <rect x="242" y="356" width="28" height="72" rx="14" fill="#D44B3A"/>
  <circle cx="198" cy="392" r="8" fill="#D44B3A"/>
  <circle cx="314" cy="392" r="8" fill="#D44B3A"/>
</svg>